#N canvas 283 84 1002 691 12;
#X obj 54 309 *~;
#X obj 72 47 inlet~;
#X obj 76 443 outlet~;
#X obj 138 59 switch~;
#X obj 138 33 inlet;
#X obj 128 221 osc~;
#X obj 127 157 *~;
#X obj 150 82 noise~;
#X obj 150 127 *~ 70;
#X obj 150 104 lop~ 80;
#X obj 100 127 +~ 0.3;
#X obj 128 242 hip~ 200;
#X obj 71 126 *~;
#X obj 70 148 *~;
#X obj 18 250 osc~ 80;
#X obj 18 228 +~ 40;
#X obj 19 202 *~ 500;
#X obj 77 394 +~;
#X obj 127 264 clip~ -1 1;
#X obj 128 179 *~ 70;
#X obj 126 330 *~ 0.04;
#X obj 55 332 *~ 0.5;
#X obj 128 200 +~ 70;
#X connect 0 0 21 0;
#X connect 1 0 10 0;
#X connect 1 0 12 0;
#X connect 1 0 12 1;
#X connect 4 0 3 0;
#X connect 5 0 11 0;
#X connect 6 0 19 0;
#X connect 7 0 9 0;
#X connect 8 0 6 1;
#X connect 9 0 8 0;
#X connect 10 0 6 0;
#X connect 11 0 18 0;
#X connect 12 0 13 0;
#X connect 12 0 13 1;
#X connect 13 0 0 1;
#X connect 13 0 16 0;
#X connect 14 0 0 0;
#X connect 15 0 14 0;
#X connect 16 0 15 0;
#X connect 17 0 2 0;
#X connect 18 0 20 0;
#X connect 19 0 22 0;
#X connect 20 0 17 1;
#X connect 21 0 17 0;
#X connect 22 0 5 0;
