#N canvas 136 86 1002 691 12;
#X obj 293 399 *~;
#X obj 311 137 inlet~;
#X obj 401 564 outlet~;
#X obj 310 216 *~;
#X obj 309 238 *~;
#X obj 257 340 osc~ 80;
#X obj 401 527 +~;
#X obj 294 422 *~ 0.8;
#X obj 257 318 +~ 30;
#X obj 257 292 *~ 600;
#X obj 257 364 clip~ 0 0.5;
#X obj 591 98 noise~;
#X obj 598 269 lop~ 16;
#X obj 493 231 *~;
#X obj 493 255 *~;
#X obj 599 295 *~ 23800;
#X obj 492 159 /~;
#X obj 521 132 lop~ 2000;
#X obj 459 132 lop~ 300;
#X obj 492 298 clip~ -0.9 0.9;
#X obj 599 317 +~ 3400;
#X obj 492 276 *~ 1e-05;
#X obj 492 196 hip~ 2500;
#X obj 477 472 *~;
#X obj 599 342 clip~ 2000 10000;
#X obj 493 418 hip~ 900;
#X obj 493 450 *~ 0.3;
#X obj 493 388 vcf~ 3333 1;
#X connect 0 0 7 0;
#X connect 1 0 3 0;
#X connect 1 0 3 1;
#X connect 1 0 23 0;
#X connect 3 0 4 0;
#X connect 3 0 4 1;
#X connect 4 0 0 1;
#X connect 4 0 9 0;
#X connect 5 0 10 0;
#X connect 6 0 2 0;
#X connect 7 0 6 0;
#X connect 8 0 5 0;
#X connect 9 0 8 0;
#X connect 10 0 0 0;
#X connect 11 0 12 0;
#X connect 11 0 17 0;
#X connect 11 0 18 0;
#X connect 12 0 15 0;
#X connect 13 0 14 0;
#X connect 13 0 14 1;
#X connect 14 0 21 0;
#X connect 15 0 20 0;
#X connect 16 0 22 0;
#X connect 17 0 16 1;
#X connect 18 0 16 0;
#X connect 19 0 27 0;
#X connect 20 0 24 0;
#X connect 21 0 19 0;
#X connect 22 0 13 0;
#X connect 22 0 13 1;
#X connect 23 0 6 1;
#X connect 24 0 27 1;
#X connect 25 0 26 0;
#X connect 26 0 23 1;
#X connect 27 0 25 0;
