#N canvas 772 379 1002 691 12;
#X obj 123 19 inlet~;
#X obj 123 499 outlet~;
#X obj 252 14 noise~;
#X obj 136 160 *~;
#X obj 136 107 /~;
#X obj 166 70 lop~ 2000;
#X obj 104 70 lop~ 300;
#X obj 137 241 clip~ -0.9 0.9;
#X obj 122 475 *~;
#X obj 156 380 clip~ 500 10000;
#X obj 154 271 lop~ 50;
#X obj 137 134 hip~ 400;
#X obj 137 219 *~ 0.01;
#X obj 155 297 *~ 50000;
#X obj 138 430 hip~ 200;
#X obj 138 453 *~ 2;
#X obj 156 355 +~;
#X obj 173 330 *~ 1000;
#X obj 138 406 vcf~ 3;
#X connect 0 0 8 0;
#X connect 0 0 17 0;
#X connect 2 0 5 0;
#X connect 2 0 6 0;
#X connect 2 0 10 0;
#X connect 3 0 12 0;
#X connect 4 0 11 0;
#X connect 5 0 4 1;
#X connect 6 0 4 0;
#X connect 7 0 18 0;
#X connect 8 0 1 0;
#X connect 9 0 18 1;
#X connect 10 0 13 0;
#X connect 11 0 3 0;
#X connect 11 0 3 1;
#X connect 12 0 7 0;
#X connect 13 0 16 0;
#X connect 14 0 15 0;
#X connect 15 0 8 1;
#X connect 16 0 9 0;
#X connect 17 0 16 1;
#X connect 18 0 14 0;
