#N canvas 151 188 450 300 12;
#X obj 470 445 *~;
#X obj 181 142 inlet~;
#X obj 401 564 outlet~;
#X obj 180 221 *~;
#X obj 401 527 +~;
#X obj 466 255 noise~;
#X obj 419 322 *~ 6;
#X obj 801 262 noise~;
#X obj 355 423 *~;
#X obj 737 287 bp~ 123 20;
#X obj 180 251 *~ 2;
#X obj 336 293 bp~ 95 90;
#X obj 411 291 bp~ 134 90;
#X obj 489 290 bp~ 139 90;
#X obj 567 290 bp~ 154 90;
#X obj 815 286 bp~ 156 90;
#X obj 893 286 bp~ 189 90;
#X obj 745 318 *~ 8;
#X obj 662 289 bp~ 201 70;
#X obj 243 258 sqrt~;
#X obj 356 449 *~ 0.5;
#X obj 469 469 *~ 0.6;
#X connect 0 0 21 0;
#X connect 1 0 3 0;
#X connect 1 0 3 1;
#X connect 1 0 19 0;
#X connect 3 0 10 0;
#X connect 4 0 2 0;
#X connect 5 0 11 0;
#X connect 5 0 12 0;
#X connect 5 0 13 0;
#X connect 5 0 14 0;
#X connect 6 0 8 1;
#X connect 7 0 9 0;
#X connect 7 0 15 0;
#X connect 7 0 16 0;
#X connect 7 0 18 0;
#X connect 8 0 20 0;
#X connect 9 0 17 0;
#X connect 10 0 0 0;
#X connect 11 0 6 0;
#X connect 12 0 6 0;
#X connect 13 0 6 0;
#X connect 14 0 6 0;
#X connect 15 0 17 0;
#X connect 16 0 17 0;
#X connect 17 0 0 1;
#X connect 18 0 17 0;
#X connect 19 0 8 0;
#X connect 20 0 4 0;
#X connect 21 0 4 0;
