#N canvas 1684 268 548 697 12;
#X obj 66 213 noise~;
#X obj 76 271 /~;
#X obj 77 344 clip~ -1 1;
#X obj 34 248 lop~ 110;
#X obj 95 247 lop~ 900;
#X obj 144 80 noise~;
#X obj 159 243 /~;
#X obj 93 171 lop~ 50;
#X obj 150 185 lop~ 70;
#X obj 77 291 *~;
#X obj 212 169 lop~ 10;
#X obj 211 190 *~ 17;
#X obj 210 213 *~;
#X obj 77 314 *~;
#X obj 209 235 +~ 0.5;
#X obj 76 366 hip~ 300;
#X obj 91 459 dac~;
#X connect 0 0 3 0;
#X connect 0 0 4 0;
#X connect 1 0 9 0;
#X connect 2 0 15 0;
#X connect 3 0 1 0;
#X connect 4 0 1 1;
#X connect 5 0 7 0;
#X connect 5 0 8 0;
#X connect 5 0 10 0;
#X connect 6 0 9 1;
#X connect 7 0 6 0;
#X connect 8 0 6 1;
#X connect 9 0 13 0;
#X connect 10 0 11 0;
#X connect 11 0 12 0;
#X connect 11 0 12 1;
#X connect 12 0 14 0;
#X connect 13 0 2 0;
#X connect 14 0 13 1;
#X connect 15 0 16 0;
