#N canvas 2080 581 450 300 12;
#X obj 138 248 dac~;
#X obj 84 43 noise~;
#X obj 113 164 clip~ -1 1;
#X obj 125 209 *~ 0.5;
#X obj 177 64 sig~ 200;
#X obj 112 115 vcf~ 10;
#X connect 1 0 5 0;
#X connect 2 0 3 0;
#X connect 3 0 0 0;
#X connect 4 0 5 1;
#X connect 5 0 2 0;
