#N canvas 1571 258 805 592 12;
#X obj 201 313 dac~;
#X obj 192 89 osc~ 1;
#X obj 194 129 *~ 200;
#X obj 192 173 osc~ 200;
#X obj 192 219 clip~ -1 1;
#X obj 198 263 *~ 0.5;
#X connect 1 0 2 0;
#X connect 2 0 3 0;
#X connect 3 0 4 0;
#X connect 4 0 5 0;
#X connect 5 0 0 0;
