#N canvas 1309 341 575 476 12;
#X obj 201 313 dac~;
#X obj 154 95 osc~ 200;
#X obj 192 219 clip~ -1 1;
#X obj 198 263 *~ 0.5;
#X obj 252 108 osc~ 400;
#X obj 194 169 *~ 0.5;
#X connect 1 0 5 0;
#X connect 2 0 3 0;
#X connect 3 0 0 0;
#X connect 4 0 5 0;
#X connect 5 0 2 0;
